<svg width="61" height="56" viewBox="0 0 61 56" fill="none" xmlns="http://www.w3.org/2000/svg">
<path d="M58.6579 47.3896C55.641 52.4178 53.9649 52.753 48.5096 54.4291C43.0544 56.1051 36.2452 56.2568 33.5169 54.7643C30.7886 53.2718 31.5056 49.0657 31.5056 45.0431C31.5056 41.0206 31.1014 33.5453 31.5057 24.2598C31.9099 14.9744 29.6961 3.47663 32.9967 1.13014C36.2973 -1.21636 39.5507 0.459762 44.2437 2.80625C48.9367 5.15275 51.2832 8.84009 54.6353 14.2035C57.9875 19.5669 58.6209 22.6317 59.9987 28.6177C61.3765 34.6036 61.6748 42.3614 58.6579 47.3896Z" fill="#29373F"/>
<path d="M2.34212 47.5141C5.35901 52.5423 7.03511 52.8775 12.4904 54.5536C17.9457 56.2296 24.0843 56.046 26.8126 54.5536C29.541 53.0611 29.4944 49.6116 29.4944 45.7135C29.4944 41.8155 29.8986 33.6698 29.4944 24.3844C29.0901 15.0989 31.3039 3.60115 28.0033 1.25466C24.7027 -1.09184 21.4493 0.584281 16.7563 2.93077C12.0633 5.27727 9.71679 8.96461 6.36467 14.328C3.01254 19.6914 2.37906 22.7563 1.00126 28.7422C-0.376545 34.7281 -0.674765 42.4859 2.34212 47.5141Z" fill="#29373F"/>
<path d="M36.5782 32.0624C37.2041 29.2468 39.1346 27.4775 41.9302 27.0624C45.4282 26.5429 47.5873 29.3455 49.2283 32.5624C51.4619 36.9409 48.189 42.5624 47.2822 45.0624C45.9745 48.6671 39.1706 48.5404 37.5513 45.0624C35.689 41.0624 35.689 36.0624 36.5782 32.0624Z" fill="url(#paint0_radial_887_27)" fill-opacity="0.6"/>
<defs>
<radialGradient id="paint0_radial_887_27" cx="0" cy="0" r="1" gradientUnits="userSpaceOnUse" gradientTransform="translate(42.4263 36.8772) rotate(90) scale(9.87722 8.22129)">
<stop offset="0.658654" stop-color="#E71E22"/>
<stop offset="0.769231" stop-color="#D77E2C"/>
<stop offset="0.942308" stop-color="#D7C938"/>
<stop offset="1" stop-color="#DACC38" stop-opacity="0"/>
</radialGradient>
</defs>
</svg>
