<svg width="83" height="75" viewBox="0 0 83 75" fill="none" xmlns="http://www.w3.org/2000/svg">
<path d="M13.6585 11.7282C21.1809 2.79538 28.484 -0.0642735 40.1586 0.2282C51.1055 0.502445 58.105 2.35215 65.1586 10.7282C73.1586 20.2282 76.8415 30.1881 77.5 40.2081C77.9578 47.173 77.5 54.2081 69.1585 61.7282C60.8171 69.2483 50.7234 67.6516 39.1586 67.7282C27.2111 67.8073 15.6586 67.4823 10.1585 61.7282C4.65854 55.9741 2.3452 49.5817 3.15855 40.2282C4.15855 28.7282 5.65855 21.2282 13.6585 11.7282Z" fill="#D9D9D9"/>
<path d="M67.6579 53.5977C64.641 58.6259 62.9649 58.9611 57.5096 60.6372C52.0544 62.3132 45.2452 62.4649 42.5169 60.9724C39.7886 59.48 40.5056 55.2738 40.5056 51.2512C40.5056 47.2287 40.1014 39.7534 40.5057 30.468C40.9099 21.1825 38.6961 9.68476 41.9967 7.33827C45.2973 4.99177 48.5507 6.66789 53.2437 9.01438C57.9367 11.3609 60.2832 15.0482 63.6353 20.4116C66.9875 25.775 67.6209 28.8399 68.9987 34.8258C70.3765 40.8117 70.6748 48.5695 67.6579 53.5977Z" fill="#29373F"/>
<path d="M11.3421 53.7222C14.359 58.7504 16.0351 59.0857 21.4904 60.7617C26.9457 62.4377 33.0843 62.2542 35.8126 60.7617C38.541 59.2692 38.4944 55.8198 38.4944 51.9217C38.4944 48.0236 38.8986 39.878 38.4944 30.5925C38.0901 21.307 40.3039 9.80928 37.0033 7.46279C33.7027 5.11629 30.4493 6.79241 25.7563 9.1389C21.0633 11.4854 18.7168 15.1727 15.3647 20.5362C12.0125 25.8996 11.3791 28.9644 10.0013 34.9503C8.62345 40.9362 8.32524 48.694 11.3421 53.7222Z" fill="#29373F"/>
<path d="M44.5782 37.2705C45.2041 34.455 47.1346 32.6857 49.9302 32.2705C53.4282 31.7511 55.5873 34.5537 57.2283 37.7705C59.4619 42.149 56.189 47.7705 55.2822 50.2705C53.9745 53.8753 47.1706 53.7485 45.5513 50.2705C43.689 46.2705 43.689 41.2705 44.5782 37.2705Z" fill="url(#paint0_radial_889_28)" fill-opacity="0.6"/>
<defs>
<radialGradient id="paint0_radial_889_28" cx="0" cy="0" r="1" gradientUnits="userSpaceOnUse" gradientTransform="translate(50.4263 42.0853) rotate(90) scale(9.87722 8.22129)">
<stop offset="0.658654" stop-color="#E71E22"/>
<stop offset="0.769231" stop-color="#D77E2C"/>
<stop offset="0.942308" stop-color="#D7C938"/>
<stop offset="1" stop-color="#DACC38" stop-opacity="0"/>
</radialGradient>
</defs>
</svg>
